# xmcd
#
# Track frame offsets:
# 150
# 16308
# 27455
# 38346
# 47988
# 62005
# 72737
#
# Disc length: 1116 seconds
#
# Revision: 0
# Processed by: cddbd v1.5.2PL0 Copyright (c) Steve Scherf et al.
# Submitted via: Audion 3.0.2 (http://www.panic.com/audion/)
#
DISCID=5c045a07
DTITLE=Wild Animal - Wild Animal
DYEAR=1900
DGENRE=
TTITLE0=Pickin' the Blues
TTITLE1=Swankin'
TTITLE2=Slap Happy
TTITLE3=Dream Girl
TTITLE4=It's A Blue Day In Hell
TTITLE5=Undertow
TTITLE6=From My Pocket
EXTD=
EXTT0=
EXTT1=
EXTT2=
EXTT3=
EXTT4=
EXTT5=
EXTT6=
PLAYORDER=
